<svg width="16" height="16" viewBox="0 0 16 16" fill="none" xmlns="http://www.w3.org/2000/svg">
<path d="M12.6667 14V2C12.6664 1.87851 12.6328 1.75942 12.5698 1.65555C12.5068 1.55169 12.4166 1.46698 12.309 1.41054C12.2014 1.3541 12.0805 1.32808 11.9592 1.33527C11.8379 1.34246 11.7209 1.38259 11.6207 1.45134L2.95407 7.45134C2.59474 7.7 2.59474 8.29867 2.95407 8.548L11.6207 14.548C11.7207 14.6175 11.8378 14.6582 11.9593 14.6658C12.0808 14.6733 12.202 14.6475 12.3098 14.591C12.4176 14.5345 12.5079 14.4496 12.5708 14.3454C12.6338 14.2412 12.6669 14.1217 12.6667 14Z" fill="#F9FAFB"/>
</svg>
